{
  "asset": {
    "version": "2.0",
    "generator": "THREE.GLTFExporter"
  },
  "scenes": [
    {
      "name": "AuxScene",
      "nodes": [
        3
      ]
    }
  ],
  "scene": 0,
  "nodes": [
    {
      "matrix": [
        0.30000001192092896,
        0,
        0,
        0,
        0,
        0.22500000894069672,
        0,
        0,
        0,
        0,
        0.0010000000474974513,
        0,
        0.01735473796725273,
        -0.0004030760901514441,
        0.2796052396297455,
        1
      ],
      "name": "mesh_id26",
      "mesh": 0
    },
    {
      "matrix": [
        0.0010000000474974513,
        0,
        0,
        0,
        0,
        2.028159118539592e-10,
        -0.000999999896853583,
        0,
        0,
        0.000999999896853583,
        2.028159118539592e-10,
        0,
        0.01465015672147274,
        -0.01924709603190422,
        0.26431676745414734,
        1
      ],
      "name": "mesh_id42",
      "mesh": 1
    },
    {
      "name": "root",
      "extras": {
        "name": "root"
      },
      "children": [
        0,
        1
      ]
    },
    {
      "children": [
        2
      ]
    }
  ],
  "bufferViews": [
    {
      "buffer": 0,
      "byteOffset": 0,
      "byteLength": 48,
      "target": 34962,
      "byteStride": 12
    },
    {
      "buffer": 0,
      "byteOffset": 48,
      "byteLength": 48,
      "target": 34962,
      "byteStride": 12
    },
    {
      "buffer": 0,
      "byteOffset": 96,
      "byteLength": 32,
      "target": 34962,
      "byteStride": 8
    },
    {
      "buffer": 0,
      "byteOffset": 128,
      "byteLength": 12,
      "target": 34963
    },
    {
      "buffer": 0,
      "byteOffset": 140,
      "byteLength": 41832,
      "target": 34962,
      "byteStride": 12
    },
    {
      "buffer": 0,
      "byteOffset": 41972,
      "byteLength": 41832,
      "target": 34962,
      "byteStride": 12
    },
    {
      "buffer": 0,
      "byteOffset": 83804,
      "byteLength": 27888,
      "target": 34962,
      "byteStride": 8
    },
    {
      "buffer": 0,
      "byteOffset": 111692,
      "byteLength": 55776,
      "target": 34962,
      "byteStride": 16
    },
    {
      "buffer": 0,
      "byteOffset": 167468,
      "byteLength": 38400,
      "target": 34963
    }
  ],
  "buffers": [
    {
      "byteLength": 205868,
      "uri": "data:application/octet-stream;base64,"
    }
  ],
  "accessors": [
    {
      "bufferView": 0,
      "componentType": 5126,
      "count": 4,
      "max": [
        0.5,
        0.5,
        0
      ],
      "min": [
        -0.5,
        -0.5,
        0
      ],
      "type": "VEC3"
    },
    {
      "bufferView": 1,
      "componentType": 5126,
      "count": 4,
      "max": [
        0,
        0,
        1
      ],
      "min": [
        0,
        0,
        1
      ],
      "type": "VEC3"
    },
    {
      "bufferView": 2,
      "componentType": 5126,
      "count": 4,
      "max": [
        1,
        1
      ],
      "min": [
        0,
        0
      ],
      "type": "VEC2"
    },
    {
      "bufferView": 3,
      "componentType": 5123,
      "count": 6,
      "max": [
        3
      ],
      "min": [
        0
      ],
      "type": "SCALAR"
    },
    {
      "bufferView": 4,
      "componentType": 5126,
      "count": 3486,
      "max": [
        117.45098114013672,
        14.374935150146484,
        117.45098114013672
      ],
      "min": [
        -117.45098114013672,
        -14.346185684204102,
        -117.45096588134766
      ],
      "type": "VEC3"
    },
    {
      "bufferView": 5,
      "componentType": 5126,
      "count": 3486,
      "max": [
        1,
        1,
        1
      ],
      "min": [
        -1,
        -1,
        -1
      ],
      "type": "VEC3"
    },
    {
      "bufferView": 6,
      "componentType": 5126,
      "count": 3486,
      "max": [
        0.3897413909435272,
        0.9999691247940063
      ],
      "min": [
        0.00008066371083259583,
        0.00020694732666015625
      ],
      "type": "VEC2"
    },
    {
      "bufferView": 7,
      "componentType": 5126,
      "count": 3486,
      "max": [
        1,
        1,
        1,
        1
      ],
      "min": [
        1,
        1,
        1,
        1
      ],
      "type": "VEC4"
    },
    {
      "bufferView": 8,
      "componentType": 5123,
      "count": 19200,
      "max": [
        3485
      ],
      "min": [
        0
      ],
      "type": "SCALAR"
    }
  ],
  "materials": [
    {
      "pbrMetallicRoughness": {
        "baseColorTexture": {
          "index": 0
        }
      },
      "alphaMode": "BLEND",
      "doubleSided": true,
      "name": "47",
      "extras": {
        "MSFT_sRGBFactors": true
      },
      "extensions": {
        "KHR_materials_pbrSpecularGlossiness": {
          "specularFactor": [
            0,
            0,
            0
          ],
          "glossinessFactor": 0,
          "diffuseTexture": {
            "index": 0
          }
        }
      }
    },
    {
      "pbrMetallicRoughness": {
        "baseColorTexture": {
          "index": 1
        }
      },
      "doubleSided": true,
      "name": "96",
      "extras": {
        "MSFT_sRGBFactors": false
      },
      "extensions": {
        "KHR_materials_pbrSpecularGlossiness": {
          "specularFactor": [
            1,
            1,
            1
          ],
          "glossinessFactor": 1,
          "diffuseTexture": {
            "index": 1
          },
          "specularGlossinessTexture": {
            "index": 2
          }
        }
      }
    }
  ],
  "textures": [
    {
      "sampler": 0,
      "source": 0,
      "name": "texture1931"
    },
    {
      "sampler": 1,
      "source": 1,
      "name": "texture2375"
    },
    {
      "sampler": 2,
      "source": 2,
      "name": "texture2379"
    }
  ],
  "samplers": [
    {
      "magFilter": 9728,
      "minFilter": 9984,
      "wrapS": 10497,
      "wrapT": 10497
    },
    {
      "magFilter": 9729,
      "minFilter": 9985,
      "wrapS": 10497,
      "wrapT": 10497
    },
    {
      "magFilter": 9729,
      "minFilter": 9985,
      "wrapS": 10497,
      "wrapT": 10497
    }
  ],
  "images": [
    {
      "mimeType": "image/png",
      "uri": "data:image/png;base64,"
    },
    {
      "mimeType": "image/png",
      "uri": "data:image/png;base64,"
    },
    {
      "mimeType": "image/png",
      "uri": "data:image/png;base64,"
    }
  ],
  "meshes": [
    {
      "primitives": [
        {
          "mode": 4,
          "attributes": {
            "POSITION": 0,
            "NORMAL": 1,
            "TEXCOORD_0": 2
          },
          "indices": 3,
          "material": 0
        }
      ]
    },
    {
      "primitives": [
        {
          "mode": 4,
          "attributes": {
            "POSITION": 4,
            "NORMAL": 5,
            "TEXCOORD_0": 6,
            "COLOR_0": 7
          },
          "indices": 8,
          "material": 1
        }
      ]
    }
  ],
  "extensionsUsed": [
    "KHR_materials_pbrSpecularGlossiness"
  ]
}